<svg 
 xmlns="http://www.w3.org/2000/svg"
 xmlns:xlink="http://www.w3.org/1999/xlink"
 width="22px" height="20px">
<path fill-rule="evenodd"  fill="rgb(255, 255, 255)"
 d="M21.477,18.039 C20.762,19.267 19.491,20.000 18.075,20.000 L3.920,20.000 C2.508,20.000 1.246,19.276 0.540,18.071 C-0.175,16.852 -0.180,15.390 0.526,14.162 L7.622,1.952 C8.323,0.733 9.590,-0.000 11.011,-0.000 C12.432,-0.000 13.699,0.729 14.400,1.956 L21.486,14.153 C22.192,15.368 22.188,16.820 21.477,18.039 ZM19.952,15.039 L12.862,2.833 C12.477,2.163 11.785,1.763 11.011,1.763 C10.232,1.763 9.545,2.159 9.160,2.829 L2.065,15.035 C1.676,15.709 1.680,16.510 2.069,17.180 C2.454,17.841 3.146,18.232 3.915,18.232 L18.070,18.232 C18.848,18.232 19.545,17.832 19.939,17.158 C20.328,16.487 20.333,15.696 19.952,15.039 ZM11.880,11.648 C11.853,11.932 11.853,12.188 11.853,12.467 C11.830,12.930 11.468,13.285 11.006,13.285 C10.545,13.285 10.187,12.953 10.160,12.494 C10.083,11.140 10.006,9.813 9.929,8.460 C9.902,8.104 9.880,7.745 9.852,7.389 C9.852,6.800 10.187,6.314 10.726,6.161 C11.264,6.035 11.803,6.292 12.033,6.796 C12.110,6.975 12.138,7.155 12.138,7.358 C12.110,7.920 12.061,8.482 12.033,9.044 C11.984,9.912 11.929,10.780 11.880,11.648 ZM11.006,14.054 C11.626,14.054 12.138,14.563 12.110,15.206 C12.138,15.790 11.599,16.303 11.006,16.303 C10.391,16.303 9.875,15.790 9.875,15.179 C9.875,14.567 10.391,14.054 11.006,14.054 Z"/>
</svg>