<svg 
 xmlns="http://www.w3.org/2000/svg"
 xmlns:xlink="http://www.w3.org/1999/xlink"
 width="24px" height="20px">
<path fill-rule="evenodd"  fill="rgb(255, 255, 255)"
 d="M6.549,8.183 C6.221,7.856 5.685,7.856 5.352,8.179 C5.019,8.501 5.019,9.026 5.347,9.353 L9.357,13.313 C9.516,13.470 9.728,13.557 9.953,13.557 C9.953,13.557 9.953,13.557 9.958,13.557 C10.183,13.557 10.394,13.470 10.554,13.318 L22.761,1.409 C23.089,1.087 23.094,0.562 22.765,0.235 C22.437,-0.092 21.901,-0.092 21.568,0.230 L17.253,4.435 C15.418,2.220 12.657,0.921 9.723,0.921 C8.352,0.921 7.028,1.197 5.789,1.736 C4.592,2.261 3.526,3.002 2.629,3.951 C1.732,4.895 1.052,5.987 0.606,7.193 C0.141,8.450 -0.047,9.772 0.052,11.126 C0.385,15.809 4.239,19.595 9.014,19.931 C9.249,19.949 9.488,19.954 9.723,19.954 C11.944,19.954 14.089,19.217 15.817,17.845 C17.704,16.353 18.944,14.239 19.314,11.900 C19.390,11.421 19.427,10.928 19.427,10.435 C19.427,9.979 19.047,9.606 18.582,9.606 C18.117,9.606 17.737,9.979 17.737,10.435 C17.737,10.840 17.704,11.246 17.643,11.646 C17.014,15.653 13.277,18.563 9.136,18.273 C5.197,17.997 2.014,14.874 1.737,11.006 C1.577,8.796 2.333,6.691 3.864,5.079 C5.376,3.491 7.512,2.579 9.723,2.579 C12.202,2.579 14.530,3.707 16.047,5.614 L9.962,11.554 L6.549,8.183 Z"/>
</svg>